<svg width="66" height="43" viewBox="0 0 66 43" fill="none" xmlns="http://www.w3.org/2000/svg">
<rect x="0.5" y="0.5" width="65" height="42" fill="#ECF0F1" stroke="white"/>
<g clip-path="url(#clip0_10_289)">
<path d="M36.625 21.5C36.625 23.2229 35.2229 24.625 33.5 24.625C31.7771 24.625 30.375 23.2229 30.375 21.5C30.375 19.777 31.7771 18.375 33.5 18.375C35.2229 18.375 36.625 19.777 36.625 21.5ZM46 21.0323C46 21.0323 41.5708 29.8333 33.5156 29.8333C26.0365 29.8333 21 21.0323 21 21.0323C21 21.0323 25.6313 13.1666 33.5156 13.1666C41.5302 13.1666 46 21.0323 46 21.0323ZM38.7083 21.5C38.7083 18.6281 36.3719 16.2916 33.5 16.2916C30.6281 16.2916 28.2917 18.6281 28.2917 21.5C28.2917 24.3718 30.6281 26.7083 33.5 26.7083C36.3719 26.7083 38.7083 24.3718 38.7083 21.5Z" fill="black"/>
</g>
<defs>
<clipPath id="clip0_10_289">
<rect width="25" height="25" fill="white" transform="translate(21 9)"/>
</clipPath>
</defs>
</svg>
