<svg width="66" height="43" viewBox="0 0 66 43" fill="none" xmlns="http://www.w3.org/2000/svg">
<rect x="0.5" y="0.5" width="65" height="42" fill="#ECF0F1" stroke="white"/>
<g clip-path="url(#clip0_10_288)">
<path d="M28.4912 28.4043C28.4912 28.502 28.3789 28.5801 28.2373 28.5801C28.0762 28.5947 27.9639 28.5166 27.9639 28.4043C27.9639 28.3066 28.0762 28.2285 28.2178 28.2285C28.3643 28.2139 28.4912 28.292 28.4912 28.4043ZM26.9727 28.1846C26.9385 28.2822 27.0361 28.3945 27.1826 28.4238C27.3096 28.4727 27.4561 28.4238 27.4854 28.3262C27.5146 28.2285 27.4219 28.1162 27.2754 28.0723C27.1484 28.0381 27.0068 28.0869 26.9727 28.1846ZM29.1309 28.1016C28.9893 28.1357 28.8916 28.2285 28.9062 28.3408C28.9209 28.4385 29.0479 28.502 29.1943 28.4678C29.3359 28.4336 29.4336 28.3408 29.4189 28.2432C29.4043 28.1504 29.2725 28.0869 29.1309 28.1016ZM32.3438 9.39062C25.5713 9.39062 20.3906 14.5322 20.3906 21.3047C20.3906 26.7197 23.7988 31.3535 28.667 32.9844C29.292 33.0967 29.5117 32.7109 29.5117 32.3936C29.5117 32.0908 29.4971 30.4209 29.4971 29.3955C29.4971 29.3955 26.0791 30.1279 25.3613 27.9404C25.3613 27.9404 24.8047 26.5195 24.0039 26.1533C24.0039 26.1533 22.8857 25.3867 24.082 25.4014C24.082 25.4014 25.2979 25.499 25.9668 26.6611C27.0361 28.5459 28.8281 28.0039 29.5264 27.6816C29.6387 26.9004 29.9561 26.3584 30.3076 26.0361C27.5781 25.7334 24.8242 25.3379 24.8242 20.6406C24.8242 19.2979 25.1953 18.624 25.9766 17.7646C25.8496 17.4473 25.4346 16.1387 26.1035 14.4492C27.124 14.1318 29.4727 15.7676 29.4727 15.7676C30.4492 15.4941 31.499 15.3525 32.5391 15.3525C33.5791 15.3525 34.6289 15.4941 35.6055 15.7676C35.6055 15.7676 37.9541 14.127 38.9746 14.4492C39.6436 16.1436 39.2285 17.4473 39.1016 17.7646C39.8828 18.6289 40.3613 19.3027 40.3613 20.6406C40.3613 25.3525 37.4854 25.7285 34.7559 26.0361C35.2051 26.4219 35.5859 27.1543 35.5859 28.3018C35.5859 29.9473 35.5713 31.9834 35.5713 32.3838C35.5713 32.7012 35.7959 33.0869 36.416 32.9746C41.2988 31.3535 44.6094 26.7197 44.6094 21.3047C44.6094 14.5322 39.1162 9.39062 32.3438 9.39062ZM25.1367 26.2314C25.0732 26.2803 25.0879 26.3926 25.1709 26.4854C25.249 26.5635 25.3613 26.5977 25.4248 26.5342C25.4883 26.4854 25.4736 26.373 25.3906 26.2803C25.3125 26.2021 25.2002 26.168 25.1367 26.2314ZM24.6094 25.8359C24.5752 25.8994 24.624 25.9775 24.7217 26.0264C24.7998 26.0752 24.8975 26.0605 24.9316 25.9922C24.9658 25.9287 24.917 25.8506 24.8193 25.8018C24.7217 25.7725 24.6436 25.7871 24.6094 25.8359ZM26.1914 27.5742C26.1133 27.6377 26.1426 27.7842 26.2549 27.877C26.3672 27.9893 26.5088 28.0039 26.5723 27.9258C26.6357 27.8623 26.6064 27.7158 26.5088 27.623C26.4014 27.5107 26.2549 27.4961 26.1914 27.5742ZM25.6348 26.8564C25.5566 26.9053 25.5566 27.0322 25.6348 27.1445C25.7129 27.2568 25.8447 27.3057 25.9082 27.2568C25.9863 27.1934 25.9863 27.0664 25.9082 26.9541C25.8398 26.8418 25.7129 26.793 25.6348 26.8564Z" fill="black"/>
</g>
<defs>
<clipPath id="clip0_10_288">
<rect width="25" height="25" fill="white" transform="translate(20 9)"/>
</clipPath>
</defs>
</svg>
